<?xml version="1.0" encoding="UTF-8" standalone="no"?>
<svg
   xmlns:dc="http://purl.org/dc/elements/1.1/"
   xmlns:cc="http://creativecommons.org/ns#"
   xmlns:rdf="http://www.w3.org/1999/02/22-rdf-syntax-ns#"
   xmlns:svg="http://www.w3.org/2000/svg"
   xmlns="http://www.w3.org/2000/svg"
   viewBox="0 0 633.61249 203.75"
   height="203.75"
   width="633.61249"
   xml:space="preserve"
   version="1.1"
   id="svg2"><metadata
     id="metadata8"><rdf:RDF><cc:Work
         rdf:about=""><dc:format>image/svg+xml</dc:format><dc:type
           rdf:resource="http://purl.org/dc/dcmitype/StillImage" /></cc:Work></rdf:RDF></metadata><defs
     id="defs6" /><g
     transform="matrix(1.25,0,0,-1.25,0,203.75)"
     id="g10"><g
       transform="scale(0.1,0.1)"
       id="g12"><path
         id="path14"
         style="fill:#000000;fill-opacity:1;fill-rule:nonzero;stroke:none"
         d="m 4664.36,967.633 c 11.21,0.746 22.24,1.383 33.23,1.793 20.27,0.75 40.42,0.726 61.27,-0.821 31.12,-2.3 61.7,-3.468 92.42,-8.234 51.63,-8.008 99.25,-30.75 139.29,-62.562 19.65,-15.621 37.5,-33.274 53.64,-52.188 26.87,-31.488 35.28,-60.328 7.78,-94.215 -58.37,-71.941 -157.13,-103.836 -248.83,-114.676 -27.49,-3.253 -56.04,-4.191 -83.69,-5.019 -105.91,-3.18 -211.82,-6.359 -317.74,-9.539 -47.26,-1.422 -94.52,-2.832 -141.78,-4.25 -15.33,-0.461 -30.66,-0.922 -46,-1.383 -4.73,-0.141 -9.48,-0.379 -14.21,-0.437 -18.09,-0.192 -128.23,-56.102 -149.52,-58.243 -25.96,-2.597 -51.91,3.071 -77.7,5.02 -22.31,1.672 -44.62,3.371 -66.92,5.043 l -282.02,-103.25 69.55,-3.692 c 41.93,3.469 83.87,6.95 125.81,10.442 18.27,1.519 37.98,5.277 56.35,4.238 33.91,-1.922 56.8,-31.691 67.95,-59.59 5.34,-13.34 8.83,-27.761 8.71,-42.121 -0.27,-37.687 -18.31,-79.211 -53.64,-98.699 -21.52,-11.859 -215.98,7.988 -239.51,14.559 -15.68,4.382 -21.94,18.632 -26.2,32.75 -2.06,6.863 -3.61,39.339 -9.02,42.531 -0.06,0.039 -100.45,59.012 -100.45,59.012 L 2313.93,11.0586 2232.8,0 3639.03,567.922 c -15.95,8.707 -31.89,19.508 -48.83,26.258 -26.94,10.742 -271.02,-3.032 -312.27,-0.36 -42.24,2.711 -88.28,23.258 -128.28,36.239 -49.4,16.015 -98.48,32.949 -148.06,48.496 l -479.04,-143.825 -54.09,-3.679 448.14,199.144 -46.36,51.621 69.55,14.758 -316.8,383.526 57.96,3.69 382.46,-295.024 127.49,165.954 65.67,0 -77.27,-188.083 c 31.26,2.129 62.54,4.258 93.78,6.375 79.7,5.426 159.39,10.847 239.08,16.265 107.11,7.282 214.22,14.567 321.34,21.852 66.83,4.547 133.66,9.09 200.48,13.637 l 27.25,17.109 c 66.06,99.755 414.21,625.455 414.21,625.455 l 23.17,62.69 42.5,-29.5 c 0,0 -159.87,-470.2 -218.6,-642.27 l 258.84,25.813 c 0,0 43.1,1.039 62.47,-15.446 l 20.54,-0.984" /><path
         id="path16"
         style="fill:#ffffff;fill-opacity:1;fill-rule:nonzero;stroke:none"
         d="m 4996.97,846.352 c 2.78,1.402 3.97,21.738 4.55,24.855 0.73,4.027 3.55,11.102 2.46,14.996 -1.72,6.184 -28.31,24.52 -34.33,24.434 -1.67,-7.324 -0.53,-16.809 -0.9,-24.469 -0.24,-5.277 -0.51,-10.563 -0.74,-15.84 l -108.19,-42.41 0,-36.883 34.78,3.692 102.37,51.625" /><path
         id="path18"
         style="fill:#ffffff;fill-opacity:1;fill-rule:nonzero;stroke:none"
         d="m 3157.41,665.031 -12.87,15.985 251.11,8.613 11.59,-18.445 -249.83,-6.153" /><path
         id="path20"
         style="fill:#ffffff;fill-opacity:1;fill-rule:nonzero;stroke:none"
         d="m 3501.25,674.863 -12.87,15.989 251.1,8.613 11.58,-18.438 -249.81,-6.164" /><path
         id="path22"
         style="fill:#ffffff;fill-opacity:1;fill-rule:nonzero;stroke:none"
         d="m 3871.25,695.762 -18.44,15.988 359.43,8.602 16.6,-18.446 -357.59,-6.144" /><path
         id="path24"
         style="fill:#ffffff;fill-opacity:1;fill-rule:nonzero;stroke:none"
         d="m 4382.08,709.289 -12.89,15.977 251.11,8.613 11.59,-18.438 -249.81,-6.152" /><path
         id="path26"
         style="fill:#000000;fill-opacity:1;fill-rule:nonzero;stroke:none"
         d="m 2172.92,133.141 c -5.7,7.058 -24.03,29.179 -24.03,29.179 L 519.109,93.8008 2143.42,112.852 l 29.5,20.289" /><path
         id="path28"
         style="fill:#000000;fill-opacity:1;fill-rule:nonzero;stroke:none"
         d="m 2618.96,343.75 c -8.68,7.059 -36.69,29.18 -36.69,29.18 L 92.0703,304.41 2573.91,323.461 l 45.05,20.289" /><path
         id="path30"
         style="fill:#000000;fill-opacity:1;fill-rule:nonzero;stroke:none"
         d="m 2388.21,670.449 c -6.15,7.071 -26.04,29.199 -26.04,29.199 l -1766.834,-68.523 1760.904,19.051 31.97,20.273" /><path
         id="path32"
         style="fill:#000000;fill-opacity:1;fill-rule:nonzero;stroke:none"
         d="m 2526.9,949.934 c -8.69,7.066 -36.7,29.187 -36.7,29.187 L 0,910.598 l 2481.84,19.05 45.06,20.286" /><path
         id="path34"
         style="fill:#000000;fill-opacity:1;fill-rule:nonzero;stroke:none"
         d="m 4064.87,1494.35 c -8.69,7.06 -36.7,29.19 -36.7,29.19 l -2490.2,-68.53 2481.84,19.05 45.06,20.29" /><path
         id="path36"
         style="fill:#000000;fill-opacity:1;fill-rule:nonzero;stroke:none"
         d="m 4007.23,1249.86 c -4.63,7.06 -19.53,29.18 -19.53,29.18 l -1325.21,-68.52 1320.75,19.05 23.99,20.29" /></g></g></svg>